<?xml version="1.0" encoding="UTF-8"?>
<svg width="256" height="256" viewBox="0 0 256 256" fill="none" xmlns="http://www.w3.org/2000/svg">
  <defs>
    <linearGradient id="g" x1="0" y1="0" x2="1" y2="1">
      <stop offset="0" stop-color="#00D1F5"/>
      <stop offset="1" stop-color="#00A8C6"/>
    </linearGradient>
    <filter id="s" x="-20%" y="-20%" width="140%" height="140%">
      <feDropShadow dx="0" dy="6" stdDeviation="8" flood-color="#00D1F5" flood-opacity=".25"/>
    </filter>
  </defs>
  <rect x="16" y="16" width="224" height="224" rx="48" fill="#0E1622"/>
  <circle cx="128" cy="128" r="90" fill="url(#g)" opacity=".12"/>
  <g filter="url(#s)">
    <path d="M70 144c0-22 18-40 40-40h36c22 0 40 18 40 40v20a10 10 0 0 1-10 10h-96a10 10 0 0 1-10-10v-20z" fill="url(#g)"/>
    <rect x="96" y="92" width="64" height="18" rx="6" fill="#00D1F5"/>
    <circle cx="96" cy="180" r="12" fill="#0B0F14"/>
    <circle cx="160" cy="180" r="12" fill="#0B0F14"/>
  </g>
  <text x="128" y="228" text-anchor="middle" fill="#9ECFE0" font-family="Poppins,Segoe UI,Arial" font-size="26" font-weight="700">M TAXI</text>
</svg>
